<svg xmlns="http://www.w3.org/2000/svg" xmlns:xlink="http://www.w3.org/1999/xlink" width="1200" height="600" viewBox="0 0 1200 600"><rect width="100%" height="100%" fill="#DDDDDD"/><path d="M286.01 338.47L304.60 338.47L304.60 351.69L247.40 351.69L247.40 338.47L268.35 338.47L268.35 278.19Q268.35 274.62 268.56 270.83L268.56 270.83L253.69 283.27Q252.40 284.27 251.15 284.52Q249.90 284.77 248.79 284.56Q247.68 284.34 246.83 283.81Q245.97 283.27 245.54 282.63L245.54 282.63L239.96 274.98L271.49 248.16L286.01 248.16L286.01 338.47ZM357.15 335.25L383.68 335.25Q386.54 335.25 388.22 336.86Q389.90 338.47 389.90 341.11L389.90 341.11L389.90 351.69L318.97 351.69L318.97 345.83Q318.97 344.04 319.72 342.08Q320.47 340.11 322.12 338.54L322.12 338.54L353.50 307.08Q357.44 303.07 360.55 299.43Q363.66 295.78 365.73 292.21Q367.80 288.63 368.91 284.95Q370.02 281.27 370.02 277.19L370.02 277.19Q370.02 273.47 368.95 270.65Q367.88 267.82 365.91 265.89Q363.94 263.96 361.19 263.00Q358.44 262.03 355.01 262.03L355.01 262.03Q351.86 262.03 349.18 262.93Q346.50 263.82 344.42 265.43Q342.35 267.04 340.92 269.18Q339.49 271.33 338.77 273.90L338.77 273.90Q337.56 277.19 335.63 278.26Q333.70 279.34 330.05 278.76L330.05 278.76L320.76 277.12Q321.83 269.68 324.90 264.07Q327.98 258.46 332.59 254.70Q337.20 250.95 343.17 249.06Q349.14 247.16 356.01 247.16L356.01 247.16Q363.16 247.16 369.09 249.27Q375.03 251.38 379.24 255.24Q383.46 259.10 385.82 264.54Q388.18 269.97 388.18 276.62L388.18 276.62Q388.18 282.34 386.50 287.20Q384.82 292.06 382.00 296.50Q379.17 300.93 375.38 305.08Q371.59 309.22 367.45 313.51L367.45 313.51L344.14 337.32Q347.50 336.32 350.82 335.79Q354.15 335.25 357.15 335.25L357.15 335.25ZM475.84 300L475.84 300Q475.84 313.51 472.94 323.49Q470.05 333.46 464.94 339.97Q459.82 346.48 452.85 349.66Q445.88 352.84 437.80 352.84L437.80 352.84Q429.72 352.84 422.82 349.66Q415.92 346.48 410.85 339.97Q405.77 333.46 402.91 323.49Q400.05 313.51 400.05 300L400.05 300Q400.05 286.41 402.91 276.48Q405.77 266.54 410.85 260.03Q415.92 253.52 422.82 250.34Q429.72 247.16 437.80 247.16L437.80 247.16Q445.88 247.16 452.85 250.34Q459.82 253.52 464.94 260.03Q470.05 266.54 472.94 276.48Q475.84 286.41 475.84 300ZM457.61 300L457.61 300Q457.61 288.77 455.96 281.41Q454.32 274.05 451.57 269.68Q448.81 265.32 445.24 263.57Q441.66 261.82 437.80 261.82L437.80 261.82Q434.01 261.82 430.47 263.57Q426.93 265.32 424.22 269.68Q421.50 274.05 419.89 281.41Q418.28 288.77 418.28 300L418.28 300Q418.28 311.23 419.89 318.59Q421.50 325.95 424.22 330.32Q426.93 334.68 430.47 336.43Q434.01 338.18 437.80 338.18L437.80 338.18Q441.66 338.18 445.24 336.43Q448.81 334.68 451.57 330.32Q454.32 325.95 455.96 318.59Q457.61 311.23 457.61 300ZM558.78 300L558.78 300Q558.78 313.51 555.88 323.49Q552.99 333.46 547.88 339.97Q542.76 346.48 535.79 349.66Q528.82 352.84 520.74 352.84L520.74 352.84Q512.66 352.84 505.76 349.66Q498.86 346.48 493.79 339.97Q488.71 333.46 485.85 323.49Q482.99 313.51 482.99 300L482.99 300Q482.99 286.41 485.85 276.48Q488.71 266.54 493.79 260.03Q498.86 253.52 505.76 250.34Q512.66 247.16 520.74 247.16L520.74 247.16Q528.82 247.16 535.79 250.34Q542.76 253.52 547.88 260.03Q552.99 266.54 555.88 276.48Q558.78 286.41 558.78 300ZM540.55 300L540.55 300Q540.55 288.77 538.90 281.41Q537.26 274.05 534.51 269.68Q531.75 265.32 528.18 263.57Q524.60 261.82 520.74 261.82L520.74 261.82Q516.95 261.82 513.41 263.57Q509.87 265.32 507.16 269.68Q504.44 274.05 502.83 281.41Q501.22 288.77 501.22 300L501.22 300Q501.22 311.23 502.83 318.59Q504.44 325.95 507.16 330.32Q509.87 334.68 513.41 336.43Q516.95 338.18 520.74 338.18L520.74 338.18Q524.60 338.18 528.18 336.43Q531.75 334.68 534.51 330.32Q537.26 325.95 538.90 318.59Q540.55 311.23 540.55 300ZM672.32 328.03L662.96 337.25L638.72 313.01L614.26 337.39L604.90 328.17L629.35 303.65L606.04 280.34L615.34 271.04L638.65 294.35L661.81 271.19L671.25 280.48L648.01 303.72L672.32 328.03ZM782.79 248.31L752.12 285.84L748.54 290.28Q751.54 288.77 755.01 287.95Q758.48 287.13 762.48 287.13L762.48 287.13Q768.35 287.13 773.89 289.06Q779.43 290.99 783.65 294.89Q787.87 298.78 790.44 304.58Q793.01 310.37 793.01 318.09L793.01 318.09Q793.01 325.31 790.37 331.64Q787.72 337.97 782.93 342.69Q778.14 347.40 771.39 350.12Q764.63 352.84 756.48 352.84L756.48 352.84Q748.18 352.84 741.61 350.19Q735.03 347.55 730.38 342.79Q725.73 338.04 723.27 331.35Q720.80 324.67 720.80 316.52L720.80 316.52Q720.80 309.22 723.77 301.54Q726.73 293.85 732.95 285.56L732.95 285.56L757.62 252.45Q758.91 250.74 761.38 249.52Q763.84 248.31 767.06 248.31L767.06 248.31L782.79 248.31ZM756.12 338.40L756.12 338.40Q760.34 338.40 763.88 336.97Q767.42 335.54 769.96 332.96Q772.49 330.39 773.92 326.92Q775.35 323.45 775.35 319.38L775.35 319.38Q775.35 314.94 774.00 311.40Q772.64 307.87 770.13 305.40Q767.63 302.93 764.13 301.64Q760.62 300.36 756.41 300.36L756.41 300.36Q752.19 300.36 748.76 301.79Q745.32 303.22 742.89 305.76Q740.46 308.29 739.10 311.76Q737.74 315.23 737.74 319.23L737.74 319.23Q737.74 323.52 738.92 327.06Q740.10 330.60 742.43 333.10Q744.75 335.61 748.18 337.00Q751.62 338.40 756.12 338.40ZM877.10 300L877.10 300Q877.10 313.51 874.20 323.49Q871.31 333.46 866.19 339.97Q861.08 346.48 854.11 349.66Q847.14 352.84 839.06 352.84L839.06 352.84Q830.98 352.84 824.08 349.66Q817.18 346.48 812.10 339.97Q807.03 333.46 804.17 323.49Q801.31 313.51 801.31 300L801.31 300Q801.31 286.41 804.17 276.48Q807.03 266.54 812.10 260.03Q817.18 253.52 824.08 250.34Q830.98 247.16 839.06 247.16L839.06 247.16Q847.14 247.16 854.11 250.34Q861.08 253.52 866.19 260.03Q871.31 266.54 874.20 276.48Q877.10 286.41 877.10 300ZM858.87 300L858.87 300Q858.87 288.77 857.22 281.41Q855.58 274.05 852.82 269.68Q850.07 265.32 846.50 263.57Q842.92 261.82 839.06 261.82L839.06 261.82Q835.27 261.82 831.73 263.57Q828.19 265.32 825.48 269.68Q822.76 274.05 821.15 281.41Q819.54 288.77 819.54 300L819.54 300Q819.54 311.23 821.15 318.59Q822.76 325.95 825.48 330.32Q828.19 334.68 831.73 336.43Q835.27 338.18 839.06 338.18L839.06 338.18Q842.92 338.18 846.50 336.43Q850.07 334.68 852.82 330.32Q855.58 325.95 857.22 318.59Q858.87 311.23 858.87 300ZM960.04 300L960.04 300Q960.04 313.51 957.14 323.49Q954.25 333.46 949.13 339.97Q944.02 346.48 937.05 349.66Q930.08 352.84 922.00 352.84L922.00 352.84Q913.92 352.84 907.02 349.66Q900.12 346.48 895.04 339.97Q889.97 333.46 887.11 323.49Q884.25 313.51 884.25 300L884.25 300Q884.25 286.41 887.11 276.48Q889.97 266.54 895.04 260.03Q900.12 253.52 907.02 250.34Q913.92 247.16 922.00 247.16L922.00 247.16Q930.08 247.16 937.05 250.34Q944.02 253.52 949.13 260.03Q954.25 266.54 957.14 276.48Q960.04 286.41 960.04 300ZM941.81 300L941.81 300Q941.81 288.77 940.16 281.41Q938.52 274.05 935.76 269.68Q933.01 265.32 929.44 263.57Q925.86 261.82 922.00 261.82L922.00 261.82Q918.21 261.82 914.67 263.57Q911.13 265.32 908.42 269.68Q905.70 274.05 904.09 281.41Q902.48 288.77 902.48 300L902.48 300Q902.48 311.23 904.09 318.59Q905.70 325.95 908.42 330.32Q911.13 334.68 914.67 336.43Q918.21 338.18 922.00 338.18L922.00 338.18Q925.86 338.18 929.44 336.43Q933.01 334.68 935.76 330.32Q938.52 325.95 940.16 318.59Q941.81 311.23 941.81 300Z" fill="#999999"/></svg>